<mxfile host="app.diagrams.net" modified="2021-03-26T17:21:15.972Z" agent="5.0 (Windows NT 10.0; Win64; x64) AppleWebKit/537.36 (KHTML, like Gecko) Chrome/89.0.4389.90 Safari/537.36" etag="nyHh6qs5gN-BAfxWKe9f" version="14.5.1" type="github">
  <diagram id="xRKbCcN9-rVhE4LlVp9i" name="第 1 页">
    <mxGraphModel dx="1673" dy="2110" grid="1" gridSize="10" guides="1" tooltips="1" connect="1" arrows="1" fold="1" page="1" pageScale="1" pageWidth="827" pageHeight="1169" math="0" shadow="0">
      <root>
        <mxCell id="0" />
        <mxCell id="1" parent="0" />
        <mxCell id="BHzNuyswBKLBd3pUWmyQ-7" value="" style="rounded=0;whiteSpace=wrap;html=1;strokeColor=none;" parent="1" vertex="1">
          <mxGeometry x="10" y="-180" width="30" height="660" as="geometry" />
        </mxCell>
      </root>
    </mxGraphModel>
  </diagram>
</mxfile>
